<svg width="16" height="15" viewBox="0 0 16 15" fill="none" xmlns="http://www.w3.org/2000/svg">
<path d="M0.6875 5.13105C0.6875 1.42279 4.625 1.42279 8 1.42279C11.375 1.42279 15.3125 1.42279 15.3125 5.13105C15.3125 9.36907 11.375 4.6013 11.375 4.6013H4.625C4.625 4.6013 0.6875 9.36907 0.6875 5.13105ZM5.1875 6.19056C5.1875 6.19056 2.375 8.83931 2.375 13.6071H13.625C13.625 8.83931 10.8125 6.19056 10.8125 6.19056H5.1875Z" stroke="#C5A059" stroke-linecap="round" stroke-linejoin="round"/>
<path d="M8 12.0178C9.24264 12.0178 10.25 11.0691 10.25 9.89879C10.25 8.7285 9.24264 7.77979 8 7.77979C6.75736 7.77979 5.75 8.7285 5.75 9.89879C5.75 11.0691 6.75736 12.0178 8 12.0178Z" stroke="#C5A059" stroke-linecap="round" stroke-linejoin="round"/>
</svg>
